<svg width="18" height="19" viewBox="0 0 18 19" fill="none" xmlns="http://www.w3.org/2000/svg">
<path d="M17.9016 18.3927L12.6573 12.8494C13.9949 11.4859 14.8236 9.60618 14.8236 7.53313C14.8236 3.37915 11.4989 0 7.41181 0C3.32473 0 0 3.37915 0 7.53313C0 11.6871 3.32473 15.0663 7.41181 15.0663C9.20582 15.0663 10.8523 14.4145 12.1356 13.3329L17.3927 18.8899C17.4619 18.9634 17.5543 19 17.6472 19C17.7354 19 17.8233 18.9666 17.8918 18.8999C18.0322 18.7625 18.0365 18.5355 17.9016 18.3927ZM7.41181 14.3488C3.71402 14.3488 0.705887 11.2915 0.705887 7.53313C0.705887 3.77482 3.71402 0.717441 7.41181 0.717441C11.1096 0.717441 14.1177 3.77482 14.1177 7.53313C14.1177 11.2915 11.1092 14.3488 7.41181 14.3488Z" fill="#333333"/>
</svg>
