<svg width="20" height="19" viewBox="0 0 20 19" fill="none" xmlns="http://www.w3.org/2000/svg">
<path d="M4.0405 18.9991C3.9664 18.9991 3.89229 18.9763 3.83 18.931C3.71974 18.851 3.66461 18.7157 3.68788 18.5819L4.79443 12.1509L0.107974 7.59701C0.0106009 7.50207 -0.0244822 7.36038 0.0174027 7.23153C0.0596456 7.10232 0.171697 7.0081 0.306659 6.98847L6.78271 6.05013L9.67921 0.199161C9.73935 0.0770944 9.86393 0 9.99997 0C10.1364 0 10.2609 0.0770944 10.3207 0.199161L13.2169 6.05013L19.6933 6.98847C19.8282 7.0081 19.9399 7.10197 19.9825 7.23153C20.0244 7.36038 19.9897 7.50243 19.892 7.59701L15.2055 12.1516L16.3117 18.5823C16.3346 18.7161 16.2795 18.8514 16.1696 18.9313C16.0593 19.012 15.9129 19.0223 15.7923 18.9584L9.99997 15.9225L4.20697 18.9584C4.1547 18.9856 4.09742 18.9991 4.0405 18.9991ZM1.12717 7.59059L5.42879 11.7712C5.51292 11.8529 5.55158 11.9714 5.53153 12.087L4.51591 17.9898L9.8335 15.2029C9.93768 15.148 10.0619 15.148 10.1668 15.2029L15.4837 17.9898L14.4684 12.087C14.4484 11.9714 14.487 11.8533 14.5711 11.7712L18.8728 7.59059L12.9283 6.72934C12.8116 6.71257 12.711 6.6394 12.6588 6.53411L9.99997 1.16391L7.34117 6.53447C7.28891 6.63976 7.18831 6.71293 7.07161 6.7297L1.12717 7.59059Z" fill="#333333"/>
</svg>
