<svg width="24" height="24" viewBox="0 0 24 24" fill="none" xmlns="http://www.w3.org/2000/svg">
<g clip-path="url(#clip0)">
<path d="M14.121 10.6287C15.2926 11.8003 15.2926 13.6999 14.121 14.8715C12.9494 16.0431 11.0498 16.0431 9.87822 14.8715C8.70661 13.6999 8.70661 11.8003 9.87822 10.6287C11.0498 9.4571 12.9494 9.4571 14.121 10.6287Z" fill="#4A76A8"/>
<path d="M20.9999 4.49986H18.9271L17.4263 1.49976H6.57223L5.07289 4.50133L3.003 4.50502C1.35282 4.50797 0.00948296 5.85273 0.00805806 7.50365L0 19.4996C0 21.1542 1.3455 22.5004 3.0001 22.5004H20.9999C22.6546 22.5004 24 21.1549 24 19.5003V7.49992C24 5.84536 22.6545 4.49986 20.9999 4.49986ZM11.9996 18.7503C8.69116 18.7503 5.99942 16.0586 5.99942 12.7501C5.99942 9.44161 8.69116 6.74988 11.9996 6.74988C15.3081 6.74988 17.9998 9.44161 17.9998 12.7501C17.9998 16.0586 15.3081 18.7503 11.9996 18.7503Z" fill="#4A76A8"/>
</g>
<defs>
<clipPath id="clip0">
<rect width="24" height="24" fill="white"/>
</clipPath>
</defs>
</svg>
