<svg width="25" height="22" viewBox="0 0 25 22" fill="none" xmlns="http://www.w3.org/2000/svg">
<path d="M15.0599 0C9.76048 0 5.43413 3.17284 5.15469 7.15678C2.06088 8.11102 0 10.4107 0 12.9681C0.059007 14.8512 1.07379 16.5888 2.71956 17.6248V21.6421C2.71956 21.8397 2.8871 21.9999 3.09375 22C3.18812 22 3.27907 21.9659 3.3483 21.9045L6.5519 19.0991C7.10286 19.1854 7.66024 19.2285 8.21856 19.2279C11.7116 19.2279 14.7854 17.5675 15.9531 15.0769C16.3423 15.0483 16.7315 15.0102 17.1208 14.9481L21.0529 18.3882C21.2045 18.5225 21.4412 18.514 21.5818 18.3691C21.646 18.3029 21.6816 18.216 21.6816 18.1257V13.1923C23.7924 11.761 25 9.71413 25 7.55756C24.995 3.39231 20.5389 0 15.0599 0ZM8.21856 18.5122C7.64284 18.5129 7.0683 18.4633 6.502 18.3643C6.38735 18.3438 6.26927 18.3755 6.18264 18.4502L3.47305 20.8358V17.4339C3.4728 17.3153 3.41118 17.2045 3.30838 17.1381C1.67166 16.0837 0.748503 14.5473 0.748503 12.9633C0.748503 10.7877 2.49002 8.80761 5.12974 7.91063C5.15538 8.23268 5.21045 8.55199 5.29441 8.86486C5.66255 10.3169 6.50293 11.6199 7.69461 12.5864C7.76447 12.6484 10.2994 15.034 15.1148 15.0913C13.9521 17.1667 11.2675 18.5122 8.21856 18.5122ZM21.0928 12.7104C20.99 12.7769 20.9284 12.8876 20.9281 13.0063V17.3003L17.485 14.2897C17.4158 14.2283 17.3249 14.1943 17.2305 14.1943H17.1607C16.5024 14.3112 15.8343 14.3703 15.1647 14.3708C11.5419 14.3708 9.3513 13.0253 8.27844 12.1618C7.18494 11.2562 6.39084 10.0659 5.99301 8.73604C5.89627 8.34349 5.84606 7.94176 5.84331 7.53847C5.87325 3.78832 9.99501 0.710907 15.0599 0.710907C20.1248 0.710907 24.2465 3.77878 24.2465 7.55279C24.2465 9.52806 23.0988 11.4079 21.0928 12.7104Z" fill="black"/>
</svg>
