<svg width="22" height="21" viewBox="0 0 22 21" fill="none" xmlns="http://www.w3.org/2000/svg">
<path d="M17.5727 14.7432C17.461 14.8193 17.394 14.9461 17.3937 15.082V20L13.6518 16.5519C13.5766 16.4816 13.4778 16.4426 13.3753 16.4426H13.2994C12.5839 16.5766 11.8579 16.6442 11.1302 16.6448C7.19306 16.6448 4.81236 15.1038 3.64642 14.1148C2.45804 13.0777 1.59504 11.7143 1.16269 10.1913C1.05755 9.74167 1.00298 9.28156 1 8.81967C1.03254 4.52459 5.51193 1 11.0163 1C16.5206 1 21 4.51366 21 8.83607C21 11.0984 19.7527 13.2514 17.5727 14.7432Z" stroke="#333333" stroke-width="0.75"/>
</svg>
