<svg width="84" height="51" viewBox="0 0 84 51" fill="none" xmlns="http://www.w3.org/2000/svg">
<path d="M17.873 19.5875C23.3615 19.5875 27.826 15.1945 27.826 9.79551C27.826 4.39303 23.3615 0 17.873 0C12.3844 0 7.91992 4.39303 7.91992 9.79375C7.91992 15.1945 12.3844 19.5875 17.873 19.5875ZM17.873 3.51724C21.3902 3.51724 24.2515 6.33455 24.2515 9.79375C24.2515 13.253 21.3902 16.0703 17.873 16.0703C14.3557 16.0703 11.4944 13.2547 11.4944 9.79551C11.4944 6.33631 14.3557 3.51724 17.873 3.51724Z" fill="white"/>
<path d="M1.78817 51C2.20638 51 2.62816 50.8558 2.96773 50.5621L32.1227 25.3048L50.5346 43.4203C51.2334 44.1079 52.3629 44.1079 53.0617 43.4203C53.7605 42.7327 53.7605 41.6213 53.0617 40.9336L44.4706 32.48L60.879 14.7988L81.0049 32.953C81.7323 33.609 82.8636 33.5597 83.5303 32.844C84.1969 32.1282 84.1487 31.015 83.4195 30.3591L61.9728 11.0142C61.6225 10.6994 61.1561 10.5429 60.686 10.5535C60.2124 10.5746 59.7656 10.7803 59.4457 11.125L41.9416 29.9897L33.4649 21.6486C32.7964 20.9926 31.7277 20.9592 31.0199 21.5712L0.606814 47.9206C-0.134883 48.5625 -0.206372 49.674 0.445963 50.4038C0.799833 50.7995 1.29311 51 1.78817 51Z" fill="white"/>
</svg>
