<svg width="21" height="19" viewBox="0 0 21 19" fill="none" xmlns="http://www.w3.org/2000/svg">
<path d="M9.97771 3.55353L10.4372 4.62455L10.8967 3.55353C11.6699 1.75134 13.432 0.500413 15.4731 0.500413C18.1836 0.500413 20.2107 2.78549 20.4684 5.63923L20.4708 5.66511L20.4751 5.68697C20.475 5.68648 20.475 5.68672 20.4752 5.68766L20.4752 5.68769L20.4753 5.68825L20.4774 5.7019C20.4796 5.71707 20.4831 5.74356 20.4867 5.78108C20.4939 5.85609 20.5014 5.97532 20.4998 6.1365C20.4964 6.4586 20.4563 6.94974 20.3021 7.59191L20.3021 7.59193C19.8838 9.33465 18.8983 10.8919 17.5599 12.0853C17.5594 12.0857 17.5589 12.0862 17.5584 12.0866L10.44 18.3323L3.44184 12.0864L3.44153 12.0861C2.10248 10.893 1.11635 9.33492 0.697875 7.59151L0.69787 7.59149C0.543698 6.94932 0.503584 6.45818 0.500236 6.13609C0.498561 5.97491 0.50609 5.85568 0.513264 5.78066C0.516852 5.74314 0.520354 5.71666 0.522578 5.70149L0.524806 5.68727L0.524809 5.68725L0.529238 5.66469L0.531575 5.63882C0.789291 2.78507 2.81644 0.5 5.52689 0.5C7.55511 0.5 9.1989 1.73823 9.97771 3.55353Z" stroke="#333333"/>
</svg>
