<svg width="47" height="38" viewBox="0 0 47 38" fill="none" xmlns="http://www.w3.org/2000/svg">
<path d="M15.6283 37.8575V29.6624C16.2829 29.5912 17.2064 29.5556 18.3987 29.5556C19.3805 29.5556 20.0585 29.7377 20.4326 30.1019C20.8066 30.4582 20.9936 31.1312 20.9936 32.121C20.9936 33.1107 20.8105 33.7877 20.4443 34.1519C20.0858 34.5082 19.4429 34.6864 18.5156 34.6864C17.8766 34.6864 17.257 34.6507 16.657 34.5795V37.8575H15.6283ZM16.657 33.7837H18.387C18.987 33.7758 19.3961 33.661 19.6143 33.4393C19.8403 33.2097 19.9533 32.7702 19.9533 32.121C19.9533 31.4717 19.8403 31.0322 19.6143 30.8026C19.3883 30.573 18.9792 30.4582 18.387 30.4582C17.5376 30.4582 16.9609 30.4622 16.657 30.4701V33.7837Z" fill="#333333"/>
<path d="M25.7743 35.4584H23.1209C23.1754 36.1235 23.3352 36.5708 23.6001 36.8004C23.8651 37.0301 24.3054 37.1449 24.921 37.1449C25.5678 37.1449 26.2263 37.0974 26.8965 37.0023L27.0017 37.6793C26.4951 37.8931 25.7587 38 24.7924 38C23.8105 38 23.1092 37.7704 22.6884 37.3111C22.2754 36.844 22.0689 36.0562 22.0689 34.9476C22.0689 33.8312 22.2715 33.0513 22.6767 32.6079C23.0819 32.1566 23.7521 31.9309 24.6872 31.9309C25.5366 31.9309 26.1562 32.0893 26.5458 32.406C26.9354 32.7148 27.1302 33.1859 27.1302 33.8193C27.1458 34.912 26.6939 35.4584 25.7743 35.4584ZM23.1092 34.6745H25.5172C25.9302 34.6745 26.1367 34.3894 26.1367 33.8193C26.1289 33.4472 26.0198 33.182 25.8094 33.0236C25.599 32.8652 25.2405 32.7861 24.734 32.7861C24.1339 32.7861 23.717 32.9207 23.4832 33.1899C23.2495 33.4512 23.1248 33.946 23.1092 34.6745Z" fill="#333333"/>
<path d="M30.0538 32.8692V36.266C30.0538 36.5431 30.1123 36.7411 30.2291 36.8598C30.346 36.9786 30.5447 37.038 30.8253 37.038H31.6903L31.8072 37.81C31.4487 37.9129 31.0201 37.9644 30.5214 37.9644C30.046 37.9644 29.6837 37.8298 29.4343 37.5606C29.1849 37.2913 29.0602 36.9034 29.0602 36.3966V32.8692H28.0316V32.1328L29.0602 32.0853V30.3632H30.0538V32.0734H31.8656V32.8692H30.0538Z" fill="#333333"/>
<path d="M4.64017 9.40592C2.61741 8.51014 0.594648 8.90826 0.107236 10.2768C-0.380176 11.6454 0.838353 13.4867 2.86111 14.3825C4.88387 15.2782 6.90663 14.8801 7.39405 13.5116C7.88146 12.1181 6.63856 10.2768 4.64017 9.40592Z" fill="#333333"/>
<path d="M23.3812 2.66272C22.2114 1.84159 20.3348 2.71249 19.1894 4.65334C18.044 6.56931 18.0927 8.80875 19.2625 9.62988C20.4323 10.451 22.3089 9.58011 23.4543 7.63926C24.5997 5.72329 24.5509 3.50873 23.3812 2.66272Z" fill="#333333"/>
<path d="M5.68808 2.91156C4.54266 3.78246 4.5914 5.99702 5.80993 7.86322C7.02846 9.72942 8.95374 10.5754 10.0992 9.70454C11.2446 8.83365 11.1958 6.61909 9.9773 4.75288C8.75877 2.88668 6.83349 2.06555 5.68808 2.91156Z" fill="#333333"/>
<path d="M14.6321 0.000252629C13.2186 -0.0246301 12.1219 1.79181 12.1706 4.03125C12.2438 6.2707 13.4623 8.11202 14.8758 8.1369C16.2893 8.16178 17.386 6.34534 17.3372 4.1059C17.2885 1.86646 16.0699 0.0251353 14.6321 0.000252629Z" fill="#333333"/>
<path d="M32.4227 8.41063C31.5941 6.91767 30.1562 6.22095 29.2545 6.81814C28.3284 7.44021 28.2797 9.13223 29.1083 10.6252C29.9369 12.1182 31.3747 12.8149 32.2765 12.2177C33.1782 11.5956 33.2513 9.9036 32.4227 8.41063Z" fill="#333333"/>
<path d="M46.9232 13.0139C46.5576 11.944 45.0223 11.6205 43.4626 12.2674C41.9029 12.9144 40.928 14.3078 41.2936 15.3529C41.6591 16.4228 43.1945 16.7463 44.7542 16.0994C46.3139 15.4524 47.2888 14.059 46.9232 13.0139Z" fill="#333333"/>
<path d="M35.9564 4.92706C34.8597 4.92706 33.9093 6.3205 33.8118 8.0374C33.7143 9.75431 34.5429 11.1477 35.6152 11.1726C36.7119 11.1726 37.6624 9.77919 37.7598 8.06229C37.8573 6.3205 37.0531 4.92706 35.9564 4.92706Z" fill="#333333"/>
<path d="M42.7558 7.29092C41.8785 6.61909 40.4163 7.21627 39.4414 8.63459C38.491 10.0529 38.3935 11.7449 39.2708 12.4168C40.1482 13.0886 41.6104 12.4914 42.5852 11.0731C43.5601 9.67966 43.6332 7.96276 42.7558 7.29092Z" fill="#333333"/>
<path d="M20.7004 12.3172C18.4583 10.3017 15.7044 9.43081 13.4867 9.85382C13.4136 9.8787 13.3405 9.8787 13.2674 9.90358C13.2186 9.90358 13.1699 9.92846 13.1211 9.92846C13.0724 9.92846 13.0237 9.95335 12.9749 9.97823C12.9262 10.0031 12.8774 10.0031 12.8287 10.028C12.78 10.0529 12.7312 10.0529 12.6825 10.0778C12.6337 10.1026 12.585 10.1026 12.5362 10.1275C12.4875 10.1524 12.4388 10.1524 12.4144 10.1773C12.3413 10.2022 12.2925 10.2271 12.2194 10.2768C10.1723 11.2472 8.41761 13.5613 7.73524 16.5473C6.73604 20.9764 8.46636 25.1567 11.6102 25.9032C13.5598 26.3759 14.9246 24.5595 17.1423 23.8379C19.36 23.1163 21.5046 23.7633 22.8206 22.2454C24.9896 19.7571 24.0392 15.3031 20.7004 12.3172ZM19.0188 17.8661L16.4599 21.5238L12.2925 20.0557C11.3665 19.9064 10.5379 19.2346 10.221 18.2393C9.78237 16.8459 10.5379 15.3529 11.9026 14.905C12.9018 14.5815 13.9254 14.905 14.6077 15.6266C14.7296 14.6313 15.412 13.7604 16.3868 13.4369C17.7516 12.989 19.2138 13.7604 19.6525 15.1538C19.9937 16.1491 19.7012 17.1693 19.0188 17.8661Z" fill="#333333"/>
<path d="M40.9767 17.6919C40.5137 15.4027 39.1977 13.5862 37.638 12.8149C37.5892 12.79 37.5405 12.7651 37.4917 12.7402C37.4674 12.7153 37.4186 12.7153 37.3943 12.6904C37.3699 12.6656 37.3211 12.6656 37.2968 12.6407C37.248 12.6158 37.2237 12.6158 37.1749 12.5909C37.1262 12.566 37.1018 12.566 37.0531 12.5411C37.0287 12.5411 36.98 12.5163 36.9556 12.5163C36.9312 12.5163 36.8825 12.4914 36.8581 12.4914C36.8094 12.4665 36.7606 12.4665 36.6875 12.4416C35.0059 12.0933 32.8857 12.6904 31.131 14.2083C28.5477 16.4477 27.7435 19.8318 29.3276 21.7726C30.3024 22.967 31.9596 22.4942 33.6656 23.0914C35.3471 23.6886 36.3707 25.082 37.8817 24.7586C40.2944 24.2609 41.6835 21.0759 40.9767 17.6919ZM38.3203 19.0355C38.101 19.7074 37.5405 20.1553 36.9068 20.2548L34.0555 21.2252L32.3495 18.7121C31.8865 18.2393 31.7159 17.5426 31.9352 16.8707C32.2521 15.9252 33.2513 15.4027 34.1773 15.7261C34.8597 15.9501 35.2984 16.5473 35.3715 17.244C35.8345 16.7463 36.5413 16.5473 37.2237 16.7712C38.1254 17.0698 38.6372 18.09 38.3203 19.0355Z" fill="#333333"/>
</svg>
