<svg width="20" height="20" viewBox="0 0 20 20" fill="none" xmlns="http://www.w3.org/2000/svg">
<path d="M10 12.5631V4.93604C9.78375 4.95603 9.57 4.98978 9.3525 4.99978H3.125C2.78 4.99978 2.5 5.27976 2.5 5.62474V6.2497H0.625C0.28 6.2497 0 6.52969 0 6.87466V10.6244C0 10.9694 0.28 11.2494 0.625 11.2494H2.5V11.8744C2.5 12.2193 2.78 12.4993 3.125 12.4993H3.50375L6.01625 19.1964C6.17 19.5976 6.51375 19.8889 6.93625 19.9738C7.02 19.9913 7.10375 20.0001 7.18625 20.0001C7.52 20.0001 7.8375 19.8676 8.065 19.6301L9.56625 18.1415C9.95 17.7577 10.0413 17.159 9.79625 16.6953L7.69875 12.4993H9.35875C9.57375 12.5093 9.78625 12.5431 10 12.5631Z" fill="#333333"/>
<path d="M19.8975 0.302481C19.885 0.281232 19.8738 0.263734 19.8575 0.243735C19.7888 0.15624 19.7025 0.0849947 19.5963 0.0437473C19.5925 0.0424973 19.59 0.0374977 19.5863 0.0362477C19.5738 0.032498 19.5625 0.0387476 19.55 0.0349978C19.4938 0.0187488 19.4375 0 19.375 0C19.3325 0 19.295 0.016249 19.2537 0.0249984C19.23 0.0299981 19.2075 0.031248 19.1838 0.0387476C19.0763 0.0737454 18.9838 0.133742 18.91 0.216236C18.905 0.221236 18.8975 0.222486 18.8925 0.227486C16.9438 2.59359 14.2263 4.17599 11.25 4.75595V12.7442C14.2263 13.3242 16.9438 14.9053 18.8925 17.2714C18.8975 17.2777 18.9062 17.2802 18.9125 17.2877C18.9563 17.3364 19.01 17.3752 19.0675 17.4077C19.0863 17.4189 19.1013 17.4352 19.12 17.4439C19.1988 17.4777 19.2837 17.4989 19.375 17.4989C19.4462 17.4989 19.5163 17.4864 19.5863 17.4627C19.59 17.4614 19.5925 17.4564 19.5963 17.4552C19.7025 17.4139 19.7888 17.3439 19.8575 17.2552C19.8725 17.2352 19.8837 17.2177 19.8975 17.1964C19.9575 17.1002 20 16.9939 20 16.8739V0.624961C20 0.504968 19.9575 0.398725 19.8975 0.302481Z" fill="#333333"/>
</svg>
