<svg width="16" height="20" viewBox="0 0 16 20" fill="none" xmlns="http://www.w3.org/2000/svg">
<path d="M5.55509 17.613C5.55505 17.6183 5.55469 17.6234 5.55469 17.6287C5.55469 18.9383 6.64948 20 7.99998 20C9.35049 20 10.4453 18.9383 10.4453 17.6287C10.4453 17.6234 10.4449 17.6183 10.4449 17.613H5.55509Z" fill="#333333"/>
<path d="M15.8073 14.6489L13.6065 11.5139C13.6065 10.5542 13.6065 8.20919 13.6065 7.60257C13.6065 4.9648 11.6693 2.76605 9.09941 2.27055V1.06611C9.09936 0.477343 8.60717 0 7.99999 0C7.39281 0 6.90061 0.477343 6.90061 1.06611V2.27059C4.33067 2.76614 2.39351 4.96488 2.39351 7.60262C2.39351 8.63524 2.39351 10.9154 2.39351 11.5139L0.192739 14.649C-0.0390792 14.9792 -0.0635946 15.4067 0.129026 15.7598C0.321647 16.1129 0.699794 16.3337 1.11175 16.3337H14.8882C15.3002 16.3337 15.6783 16.1129 15.871 15.7598C16.0636 15.4066 16.0391 14.9792 15.8073 14.6489Z" fill="#333333"/>
</svg>
