<svg width="21" height="20" viewBox="0 0 21 20" fill="none" xmlns="http://www.w3.org/2000/svg">
<path d="M18.1139 7.70686L17.5838 6.48152C17.5838 6.48152 18.8172 3.77442 18.7083 3.67034L17.0751 2.11951C16.9622 2.01258 14.1783 3.24833 14.1783 3.24833L12.8943 2.744C12.8943 2.744 11.7602 0 11.6045 0H9.30015C9.13965 0 8.09009 2.74968 8.09009 2.74968L6.80805 3.2559C6.80805 3.2559 3.96577 2.08071 3.85683 2.18574L2.22655 3.73847C2.11372 3.84539 3.41132 6.49761 3.41132 6.49761L2.88119 7.72106C2.88119 7.72106 0 8.80068 0 8.9464V11.1435C0 11.2968 2.888 12.2969 2.888 12.2969L3.41813 13.5185C3.41813 13.5185 2.18472 16.2237 2.2927 16.3278L3.92492 17.8824C4.03581 17.9874 6.8207 16.7517 6.8207 16.7517L8.10566 17.2579C8.10566 17.2579 9.23984 20 9.39645 20H11.7008C11.8603 20 12.9109 17.2503 12.9109 17.2503L14.1968 16.7441C14.1968 16.7441 17.0333 17.9193 17.1432 17.8162L18.7754 16.2634C18.8892 16.1546 17.5887 13.5043 17.5887 13.5043L18.1178 12.2808C18.1178 12.2808 21 11.1993 21 11.0517V8.85651C21.001 8.70417 18.1139 7.70686 18.1139 7.70686ZM13.8671 9.99953C13.8671 11.7661 12.3564 13.2043 10.5005 13.2043C8.64649 13.2043 7.13391 11.7661 7.13391 9.99953C7.13391 8.23296 8.64649 6.79661 10.5005 6.79661C12.3574 6.79756 13.8671 8.23296 13.8671 9.99953Z" fill="white"/>
</svg>
