<svg width="20" height="20" viewBox="0 0 20 20" fill="none" xmlns="http://www.w3.org/2000/svg">
<path d="M10 0C4.48609 0 0 4.48609 0 10C0 15.5139 4.48609 20 10 20C15.5139 20 20 15.5139 20 10C20 4.48609 15.5139 0 10 0ZM10 19.1667C4.94547 19.1667 0.83332 15.0545 0.83332 10C0.83332 4.94547 4.94547 0.83332 10 0.83332C15.0545 0.83332 19.1667 4.94547 19.1667 10C19.1667 15.0545 15.0545 19.1667 10 19.1667Z" fill="#9B9B9B"/>
<path d="M15.3659 11.6841C15.1401 11.63 14.9171 11.7692 14.8642 11.993C14.3271 14.2541 12.3268 15.8333 9.99929 15.8333C7.66898 15.8333 5.66785 14.2517 5.13316 11.9877C5.07984 11.7631 4.85402 11.6268 4.63187 11.6776C4.40765 11.7305 4.2689 11.9551 4.32179 12.1789C4.94597 14.8213 7.28078 16.6666 9.99929 16.6666C12.7145 16.6666 15.0485 14.8241 15.6748 12.1858C15.7281 11.9616 15.5898 11.737 15.3659 11.6841Z" fill="#9B9B9B"/>
<path d="M6.66633 8.33339C7.12656 8.33339 7.49965 7.9603 7.49965 7.50007C7.49965 7.03984 7.12656 6.66675 6.66633 6.66675C6.2061 6.66675 5.83301 7.03984 5.83301 7.50007C5.83301 7.9603 6.2061 8.33339 6.66633 8.33339Z" fill="#9B9B9B"/>
<path d="M13.3333 8.33339C13.7936 8.33339 14.1666 7.9603 14.1666 7.50007C14.1666 7.03984 13.7936 6.66675 13.3333 6.66675C12.8731 6.66675 12.5 7.03984 12.5 7.50007C12.5 7.9603 12.8731 8.33339 13.3333 8.33339Z" fill="#9B9B9B"/>
</svg>
