<svg width="37" height="37" viewBox="0 0 37 37" fill="none" xmlns="http://www.w3.org/2000/svg">
<g clip-path="url(#clip0)">
<path d="M36.3794 13.1089V29.1695C36.3794 31.6183 34.5417 33.6064 32.2809 33.6064H4.83637C2.57557 33.6064 0.737793 31.6183 0.737793 29.1695L0.737793 13.1089C0.737793 12.9947 0.760284 12.8816 0.803983 12.7761C0.847681 12.6706 0.911731 12.5747 0.992475 12.494C1.07322 12.4133 1.16908 12.3492 1.27457 12.3055C1.38007 12.2618 1.49314 12.2393 1.60733 12.2393C1.72152 12.2393 1.83459 12.2618 1.94009 12.3055C2.04559 12.3492 2.14144 12.4133 2.22219 12.494C2.30293 12.5747 2.36698 12.6706 2.41068 12.7761C2.45438 12.8816 2.47687 12.9947 2.47687 13.1089L2.47687 29.1695C2.47687 30.6594 3.53441 31.8674 4.82697 31.8674L32.2809 31.8674C33.5828 31.8674 34.631 30.6594 34.631 29.1695V13.1089C34.631 12.8782 34.7226 12.6571 34.8856 12.494C35.0487 12.3309 35.2699 12.2393 35.5005 12.2393C35.7311 12.2393 35.9523 12.3309 36.1154 12.494C36.2784 12.6571 36.37 12.8782 36.37 13.1089H36.3794Z" fill="white"/>
<path d="M19.4307 4.18796V23.816C19.4307 24.0466 19.3391 24.2678 19.176 24.4309C19.013 24.5939 18.7918 24.6855 18.5612 24.6855C18.3306 24.6855 18.1094 24.5939 17.9463 24.4309C17.7833 24.2678 17.6917 24.0466 17.6917 23.816V4.18796C17.6917 3.95734 17.7833 3.73617 17.9463 3.5731C18.1094 3.41003 18.3306 3.31842 18.5612 3.31842C18.7918 3.31842 19.013 3.41003 19.176 3.5731C19.3391 3.73617 19.4307 3.95734 19.4307 4.18796V4.18796Z" fill="white"/>
<path d="M24.7796 8.79867C24.779 8.96993 24.7279 9.13722 24.6326 9.27953C24.5373 9.42184 24.4021 9.53284 24.2439 9.59861C24.0858 9.66438 23.9118 9.68198 23.7437 9.6492C23.5756 9.61643 23.4209 9.53474 23.299 9.41439L19.2098 5.32992C19.125 5.24337 19.0237 5.17462 18.9119 5.12768C18.8001 5.08075 18.6801 5.05657 18.5589 5.05657C18.4376 5.05657 18.3176 5.08075 18.2058 5.12768C18.0941 5.17462 17.9928 5.24337 17.9079 5.32992L13.8234 9.41439C13.6601 9.57769 13.4386 9.66943 13.2077 9.66943C12.9767 9.66943 12.7553 9.57769 12.592 9.41439C12.4287 9.25109 12.3369 9.02961 12.3369 8.79867C12.3369 8.56772 12.4287 8.34624 12.592 8.18294L16.6764 4.09846C17.1753 3.6002 17.8515 3.32032 18.5565 3.32032C19.2616 3.32032 19.9378 3.6002 20.4366 4.09846L24.5211 8.18764C24.6025 8.2673 24.6672 8.36233 24.7116 8.46723C24.756 8.57212 24.7791 8.68477 24.7796 8.79867V8.79867Z" fill="white"/>
</g>
<defs>
<clipPath id="clip0">
<rect width="37" height="37" fill="white" transform="translate(0 37) rotate(-90)"/>
</clipPath>
</defs>
</svg>
