<svg width="28" height="25" viewBox="0 0 28 25" fill="none" xmlns="http://www.w3.org/2000/svg">
<path d="M27.8317 12.898C27.5288 12.3447 26.8221 12.1372 26.25 12.483L22.4135 14.7652L21.4375 15.353V20.8164L22.3461 21.3697C22.3798 21.3697 22.3798 21.4042 22.4135 21.4042L26.1826 23.6518C26.3509 23.7901 26.5865 23.8593 26.8221 23.8593C27.4615 23.8593 27.9663 23.3406 27.9663 22.6836V18.0501L27.9999 13.4858C27.9999 13.2783 27.9663 13.0708 27.8317 12.898Z" fill="white"/>
<path d="M5.41856 11.1342C8.41372 11.1342 10.8368 8.64459 10.8368 5.56712C10.8368 2.48964 8.41372 0 5.41856 0C2.4234 0 0.000341688 2.48964 0.000341688 5.56712C-0.0333118 8.64459 2.4234 11.1342 5.41856 11.1342ZM5.41856 3.28495C6.66374 3.28495 7.63969 4.3223 7.63969 5.56712C7.63969 6.84652 6.63009 7.84929 5.41856 7.84929C4.20703 7.84929 3.19743 6.81194 3.19743 5.56712C3.16377 4.28772 4.17338 3.28495 5.41856 3.28495Z" fill="white"/>
<path d="M19.1491 11.4454C18.2741 11.8949 17.2982 12.1715 16.2549 12.1715C14.9761 12.1715 13.7646 11.7912 12.755 11.0996H8.91845C7.90884 11.7912 6.69732 12.1715 5.41848 12.1715C4.37522 12.1715 3.39927 11.9295 2.52428 11.4454C1.75025 11.8949 1.21179 12.7939 1.21179 13.7621V22.1993C1.21179 23.7553 2.45697 25.0001 3.93773 25.0001H17.7693C19.2837 25.0001 20.4953 23.7207 20.4953 22.1993V13.7621C20.4616 12.7939 19.9232 11.8949 19.1491 11.4454Z" fill="white"/>
<path d="M16.255 11.1342C19.2502 11.1342 21.6732 8.64459 21.6732 5.56712C21.6732 2.48964 19.2502 0 16.255 0C13.2598 0 10.8368 2.48964 10.8368 5.56712C10.8368 8.64459 13.2598 11.1342 16.255 11.1342ZM16.255 3.28495C17.5002 3.28495 18.4761 4.3223 18.4761 5.56712C18.4761 6.84652 17.4665 7.84929 16.255 7.84929C15.0435 7.84929 14.0339 6.81194 14.0339 5.56712C14.0339 4.28772 15.0098 3.28495 16.255 3.28495Z" fill="white"/>
</svg>
